<?xml version="1.0" encoding="UTF-8"?>
<svg id="Layer_2" data-name="Layer 2" xmlns="http://www.w3.org/2000/svg" viewBox="0 0 639 273">
  <defs>
    <style>
      .cls-1 {
        fill: #208273;
      }

      .cls-2 {
        fill: #3681ba;
      }

      .cls-3 {
        fill: #87a3c3;
      }

      .cls-4 {
        fill: #208c64;
      }

      .cls-5 {
        fill: #73b844;
      }

      .cls-6 {
        fill: #337fb8;
      }

      .cls-7 {
        fill: #bacfe4;
      }

      .cls-8 {
        fill: #2a915b;
      }

      .cls-9 {
        fill: #9bb7d2;
      }

      .cls-10 {
        fill: #317d73;
      }

      .cls-11 {
        fill: #b2c6d9;
      }

      .cls-12 {
        fill: #3196c7;
      }

      .cls-13 {
        fill: #329754;
      }

      .cls-14 {
        fill: #3880b9;
      }

      .cls-15 {
        fill: #bdd2e6;
      }

      .cls-16 {
        fill: #3981b9;
      }

      .cls-17 {
        fill: #387fb7;
      }

      .cls-18 {
        fill: #afcbc2;
      }

      .cls-19 {
        fill: #1e9054;
      }

      .cls-20 {
        fill: #389462;
      }

      .cls-21 {
        fill: #2f89bd;
      }

      .cls-22 {
        fill: #9db6cb;
      }

      .cls-23 {
        fill: #539f57;
      }

      .cls-24 {
        fill: #2c7daf;
      }

      .cls-25 {
        fill: #134e80;
      }

      .cls-26 {
        fill: #9cb7d0;
      }

      .cls-27 {
        fill: #a2cce8;
      }

      .cls-28 {
        fill: #bfdaed;
      }

      .cls-29 {
        fill: #87a6c3;
      }

      .cls-30 {
        fill: #a2cde9;
      }

      .cls-31 {
        fill: #bed4e8;
      }

      .cls-32 {
        fill: #4aa04a;
      }

      .cls-33 {
        fill: #25767d;
      }

      .cls-34 {
        fill: #2075af;
      }

      .cls-35 {
        fill: #3097c7;
      }

      .cls-36 {
        fill: #9ab7d0;
      }

      .cls-37 {
        fill: #3783bc;
      }

      .cls-38 {
        fill: #5fac46;
      }

      .cls-39 {
        fill: #49a04a;
      }

      .cls-40 {
        fill: #2f924e;
      }

      .cls-41 {
        fill: #237787;
      }

      .cls-42 {
        fill: #4fa349;
      }

      .cls-43 {
        fill: #abc2dc;
      }

      .cls-44 {
        fill: #0e589c;
      }

      .cls-45 {
        fill: #7499bc;
      }

      .cls-46 {
        fill: #8aaed4;
      }

      .cls-47 {
        fill: #42939f;
      }

      .cls-48 {
        fill: #329160;
      }

      .cls-49 {
        fill: #63aa4e;
      }

      .cls-50 {
        fill: #459d52;
      }

      .cls-51 {
        fill: #2c84b8;
      }

      .cls-52 {
        fill: #218272;
      }

      .cls-53 {
        fill: #bdd2e5;
      }

      .cls-54 {
        fill: #349650;
      }

      .cls-55 {
        fill: #419b4b;
      }

      .cls-56 {
        fill: #0f59a0;
      }

      .cls-57 {
        fill: #7a9abd;
      }

      .cls-58 {
        fill: #1d629d;
      }

      .cls-59 {
        fill: #72b844;
      }

      .cls-60 {
        fill: #1d6da9;
      }

      .cls-61 {
        fill: #36964f;
      }

      .cls-62 {
        fill: #8aacc9;
      }

      .cls-63 {
        fill: #98aec6;
      }

      .cls-64 {
        fill: #58a54a;
      }

      .cls-65 {
        fill: #309161;
      }

      .cls-66 {
        fill: #4ea251;
      }

      .cls-67 {
        fill: #155d9c;
      }

      .cls-68 {
        fill: #71b644;
      }

      .cls-69 {
        fill: #0f5998;
      }

      .cls-70 {
        fill: #b8cee3;
      }

      .cls-71 {
        fill: #3880b7;
      }

      .cls-72 {
        fill: #1d6395;
      }

      .cls-73 {
        fill: #8ab5d8;
      }

      .cls-74 {
        fill: #377fb6;
      }

      .cls-75 {
        fill: #5aab46;
      }

      .cls-76 {
        fill: #5ca946;
      }

      .cls-77 {
        fill: #1b8b5a;
      }

      .cls-78 {
        fill: #39896e;
      }

      .cls-79 {
        fill: #389359;
      }

      .cls-80 {
        fill: #3982bc;
      }

      .cls-81 {
        fill: #2f955a;
      }

      .cls-82 {
        fill: #1c7884;
      }

      .cls-83 {
        fill: #b1c9e0;
      }

      .cls-84 {
        fill: #3882bd;
      }

      .cls-85 {
        fill: #61ae46;
      }

      .cls-86 {
        fill: #c0d1e1;
      }

      .cls-87 {
        fill: #92b1cd;
      }

      .cls-88 {
        fill: #257cb4;
      }

      .cls-89 {
        fill: #125ba0;
      }

      .cls-90 {
        fill: #175b9a;
      }
    </style>
  </defs>
  <g id="Layer_1-2" data-name="Layer 1">
    <g>
      <path class="cls-56" d="M484.7,161.08c-4.29,4.71-8.35,8.69-13.55,11.61-30.94,17.33-73.42,7.19-87.05-26.5-5.75-14.22-5.65-28.91.23-43.19,7.55-18.34,25.25-30.67,45.09-33.13,5.71-.71,11.31-.5,17.12-.14,11.78.73,22.87,5.49,31.9,12.72,23.72,18.97,26.26,56.69,6.26,78.63ZM434.49,91.16c-8.95,1-17.5,5.71-22.67,13.2-8.36,12.12-8.64,26-1.37,38.59,4.84,8.39,13.23,14.13,23.29,15.7,3.12,1.48,6.93.68,10.49,0,5.88-1.11,11.84-3.24,16.61-7.36,8.32-7.19,11.99-18.07,11.39-28.75-.91-16.17-12.12-29.58-28.76-31.37-2.63-1.13-6.36-1.13-8.99,0Z"/>
      <path class="cls-89" d="M300.4,148.08c-.2.66-.45.65-.75,0-.44,9.97-.57,20.04-.38,30.2l-23.84.08c-.32-35.54-.28-71.04.14-106.51,19.52-.34,39.03-.35,58.53-.05,23.27,3.37,38.32,20.38,34.64,44.92-1.65,11.01-7.99,20.29-18.05,25.53-6.03,3.15-12.76,5.47-19.82,5.54l-30.49.28ZM300.4,92c-1.85,11.08-.06,22.64-.89,34.34-.04.5.78.93.89.82,15.54-1.33,38.81,5.6,42.79-13.46,1.52-2.55.63-5.27.01-7.48-1.42-5.09-3.81-9.47-8.64-11.7-2.59-1.2-5.96-2.61-8.69-2.6-.53-.99-25.17-1.14-25.47.09Z"/>
      <path class="cls-56" d="M509.4,129.39c-.66-2.82-.63-6.18,0-8.98-.11-13.24,6.28-25.65,15.78-35.04,4.32-4.27,8.8-7.13,14.09-9.87,9.08-4.71,18.37-6,28.59-6.17,17.04-.29,33.23,5.53,44.43,19.11l-10.98,10.79c-1.54,1.52-3.47,2.39-5.08,4.4-13.53-16.39-39.59-17.48-53.3-2.12-7.27,8.15-10.27,19.61-8.17,29.94,3.18,15.58,14.95,26.41,30.5,27.48,12.4.85,22.85-3.54,30.98-13.58,6.05,6.63,9.91,8.46,16.19,15.6-21.31,27.06-67.07,26.05-89.48,1.4-8.28-9.11-13.53-20.37-13.53-32.95Z"/>
      <path class="cls-44" d="M88.4,164.55c1.93.79,1.12,1.65-.74,2.25h-32.75c.23,2.26,3.51,3.47,6.08,3.84,9.1,1.3,22.64,1.21,31.32-.87,1.52-.36,1.92.37,1.11,1.62l-6.92,13.25c-.36-1.64-.06-2.84-.57-3.51l-36.23-.45c-10.04-.12-18.48-6.05-23.99-14.12-6.41-9.37-7.89-21.3-6.71-32.77,3.57,15.67,18.2,30.37,35.32,30.5l34.08.26Z"/>
      <path class="cls-68" d="M203.63,96.63c-.16,1.2-1.14,1.98-2.94,2.33-4.84,6.19-7.5,1.98-7.99-3.97l-.17-17.23c0-.23-.63-7.68-1.96-8.21-1.63-.66-3.97,6.55-11.89,10.23-1.71-.42-3.42-.61-5.13-.57-3.68,1.38-7.19,3.15-10.52,5.32l-1.9-.73c-4.62,2.71-10.13-.85-4.63-4.36,1.64-.74,3.28-2.26,5.14-3.32,14.4-8.13,26.7-16.93,32.47-33.88,5.63,11.71,9.87,23.72,10.14,36.48l.31,14.83c.03,1.36-.31,2.4-.96,3.08Z"/>
      <path class="cls-12" d="M95.07,81.49l-1.85-.32c-.29-8.25-.38-16.51-.27-24.79-1.74-.91-3.63-1.75-5.64-2.51.05-3.02.22-6.01.48-8.99,3.77-16.33,17.42-23.73,33.51-24.79,3.03-.2,6.14-1.87,8.99.26-15.95,4.41-27.28,18.83-27.47,34.45l-.32,25.82c-2.66.3-5.2.22-7.44.88Z"/>
      <path class="cls-5" d="M167.57,65.82l-1.67-.9c-.24-5.32-.83-10.56-1.77-15.75l.75-2.8-1.95-1.06c-9.07-21.52-37.95-17.23-51.2-2.13-.89,1.73-1.74,3.58-3.53,5.28,1.05-7.04,4.97-12.77,10.37-17.64,14.43-13.01,41.55-13.47,52.14,5.19,4.1,7.23,4.83,16.02,4.46,24.42-2.53,2.32-5.11,3.68-7.61,5.39Z"/>
      <path class="cls-72" d="M133.52,155.26c-3.66,2.88-13.97,14.12-16,17.65,1.62,1.64.07,3.34-2.12,2.83-.74,2.88-1.92,6.92-4.53,8.25-5.75,4.95-9.39,25.71-8.22,32.44-.81,3.16-1.23,6.32-1.25,9.49.88,2.18.77,3.85-.33,5.01l-2.09-.16c-3.6-5.88-5.79-12.43-6.56-19.64-1.28-1.36-2.87-2.32-4.78-2.88.11-2.31.11-4.66,0-7.04.19-1.18.87-2.58,1.01-3.73.85-4.26,2.55-5.23,5.1-2.92l1.98-.83,5.49-12.92,2.2-1.39c-.93-2.03-.18-4.22,2.24-6.58,1.78-2.47,5.16-7.04,8.07-6.78,4.34-5.08,9.22-9.58,14.66-13.48,2.38-.65,6.11-.06,5.12,2.7Z"/>
      <path class="cls-69" d="M101.08,230.93l1.84.41c12.17,13.7,32.59,8.73,45.42-1.36,1.9-.3,2.34.02,1.42,1.88-10.48,17.52-39.54,23.54-54.63,7.59-7.63-8.07-10.07-21.76-8.4-32.39l.92-5.86c1.55,1.38.64,3.89.17,5.68,2.27.47,5.99,2.28,6.39,4.72,1.17,7.13,2.27,14.27,6.87,19.33Z"/>
      <path class="cls-59" d="M241.58,134.69c-5.38-15.76-15.38-26.47-32.56-28.76l1.77-16.96c23.59,2.37,33.81,23.57,30.79,45.72Z"/>
      <path class="cls-77" d="M166.22,220.64c.11,3.52-.41,6.92-1.56,10.18.11.79.92,1.26,2.43,1.42,1.58,1,1.82,2.87.71,5.61-6.35,7.66-14.98,11.35-25.47,12.08-3.86.27-7.29,1.5-11.66.11,16.54-4.68,27.48-17.96,28.22-34.63l.6-16.52c3.45-3.97,7.13,1.44,6.73,5.65l.83,11.35c.98,2.4.7,3.99-.83,4.76Z"/>
      <path class="cls-67" d="M76.3,125.65l1.73,1.63c2.4,13.31,10.18,25.25,20.32,34.07l.47,2.32c-.81,2.2-2.56,4.48-4.44,5.91-3.35-.28-6.07-3.27-5.99-6.6-5.98-5.69-10.65-13-14.34-20.7-7.74-16.13-6.51-36.22,7.75-47.28,1.43-1,1.58-.49,1.58,1.15-1.7,1.87-3.24,3.81-4.59,5.82,1.47.7,2.61,1.72,3.4,3.06-3.06,6-4.57,12.23-4.55,18.7l-1.34,1.94Z"/>
      <path class="cls-75" d="M175.21,203.44c-1.51.61-2.37-.6-2.58-3.65l-5.67-11.16c-2.57-1.11-1.65-7.17-1.23-9.85,2.37-2.74,5.34-4.93,8.07-7.37,1.27-1.14,2.89-1.26,4.85-.36,7.9.32,22.76.8,29.59-1.95,4.41-1.78,8.16-4.86,11.04-8.62l2.21-.5c-1.74,10.25-12.72,18.99-24.16,20.65-7.18,1.04-14.55-.16-22.06.46l-.06,22.35Z"/>
      <path class="cls-51" d="M97.39,87.51c3.13-.41,1.87,2.15-.8,2.54,3.61,2.45,7.76,4.29,12.43,5.52,1.15.67,5.15,5.71,1.86,4.65-1.56.2-3.61-.53-5.44-.57-11.32-.23-19.96,7.97-22.28,18.52-.44-.19-.32-.67-.32-.64-.63,2.81-.91,6.14-.01,8.89-1,2.44-5.95,2.19-6.51-.78-.81-7.15.88-14.05,4.69-20.51l-4.14-2.65c.12-2.73,7.43-8.02,4.95-7.51,3.93-4.77,9.91-6.13,15.58-7.48Z"/>
      <path class="cls-58" d="M33.71,115.93c-.01,13.54.31,34.88,13.66,43.33-16.16-4.13-24.64-18.58-26.72-34.15-.8-5.96.63-9.62,1.58-14.45.76-3.87,3.09-5.55,4.73-8.2,1.76-1.21,4.23,4.9,4.22,5.92-2.31,6.87-2.74,13.61-1.3,20.23,2.14,3.8,2.66,2.4,1.56-4.2l.52-7.3,1.74-1.19Z"/>
      <path class="cls-82" d="M163.31,124.68c-4.5,8.48-14.78,15.21-15.77,18.93,2.1,2.17,5.27,2.98,9.52,2.42,2.39.26,5.03.87,5.21,3.65-5.23,2.13-10.66,3.59-16.3,4.39-1.51.07-10.64.91-12.45,1.2-2.45-2.43-6.18-1.63-8.73.7l-11.05,10.08-.08-2.2c2.64-2.16,5.21-4.45,7.7-6.84-.12-.55-.18-1.17.17-1.59,5.07-6.03,12.8-11.24,19.31-15.57.26-1.68,4.35-5.55,5.9-6.36.93-.49,1.34-.61,2.26.37,3.49-2.85,6.77-5.97,9.84-9.37,3.54-3.15,8.86-7,4.47.2Z"/>
      <path class="cls-76" d="M163.34,172.67c-1.19.72-2.82.12-4.89-1.82-1.86,1.82-3.9,3.42-6.12,4.79l-1.62-.61c-2.74,2.17-8.82,3.93-8.37-.67l10.13-8.76,9.24-8.53c9.03-3.26,16.92-7.38,25.05-13.25-5.77,11.93-14.41,20.79-23.41,28.85Z"/>
      <path class="cls-2" d="M577.49,230.13c-1.04.2-3.63.8-4.91-.06l-6.41-9.32-9.55-.09-.05,9.61c-1.6.19-2.85.22-4.46-.02l.06-30.45c6.7.21,16.98-1.58,21.77,2.84,4.27,3.93,3.89,11.07.14,15.15-1.01,1.09-2.64.76-3.54,2.06l6.95,10.28ZM562.59,216.91c2.6.03,6.02-.33,7.85-2.5,1.67-1.99,2.28-4.15,1.47-6.3-.63-1.68-2.07-3.98-4.82-3.97.09-.34-.27-.66-.78-.66l-9.71-.02v13.39s5.99.06,5.99.06Z"/>
      <path class="cls-35" d="M131.13,100.35c2.09,1.88.57,4.96-2.17,4.36.43.88.37,1.63-.71,1.44l-2.38,5.05c-2.4-2.56-4.9-4.97-7.5-7.24l-7.49-3.74c.14.16.38.07.79-.49-1.94.21-2.41-2.48-3.84-3.15-2.87-1.36-13.61-3.2-12.67-7.14.18-.77,1.26-1.05,2.38-1.06.79-.36.63-.93-.14-.88,12.87-3.07,25.76,2.23,33.74,12.84Z"/>
      <path class="cls-41" d="M149.75,231.86c.23-.52-.26-.72-.53-.66-4.55.99-5.18,6-18.12,8.93-8.42,1.9-17.61,1.56-24.75-3.67-1.98-1.45-4.63-3.39-5.28-5.53-1.85-6.13-2.12-9.76,1.58-14.5.55,3.17,2.74,7.3,4.66,9.89,4.96,6.71,13.1,7.82,20.76,7.99,10.08.23,19.33-2.76,25.12-11.34.43,4.17-1.96,6.41-3.44,8.88Z"/>
      <path class="cls-19" d="M164.87,46.37c-.16,8.11-7.08,3.68-9.05-1.55-4.58-6.07-11.53-9.01-19.52-9.07-10.34-.07-16.73,1.56-24.57,7.42,2.37-4.61,7.16-8.39,12.19-10.72,14.83-6.88,35.34-4.04,40.95,13.91Z"/>
      <path class="cls-55" d="M221.49,159.98c-5.47,7.96-13.52,12.58-23.7,12.57h-19.24c-1.76-.01-3.21-1.37-4.75-1.14,1.99-1.78,3.02-4.85,5.54-6.68l24.82-.45c8.36-.15,15.65-5.15,18.67-13.25,1.11,3.17-.84,5.99-1.34,8.94Z"/>
      <path class="cls-84" d="M301.15,201.2c.61,9.43.64,18.98,0,28.42-.83.85-3.7,1.33-4.12-.29-.73-2.81-.12-9.52-.36-12.43-5.47-.66-11.04-.63-16.52-.02-1.83,4.07-.05,8.72-.84,13.36-1.37.26-2.79.25-4.4,0l.09-30.24c1.61-.42,2.86-.43,4.4-.2l.09,12.63h17.1c.68-4.1-.6-7.95.43-11.95.37-1.44,3.83-1.49,4.12.72Z"/>
      <path class="cls-37" d="M467.45,200.45c.62,9.68.64,19.48,0,29.17-.22,1.28-3.82,1.28-4.16-.3-.61-2.86-.1-9.5-.33-12.41-5.46-.64-11.03-.65-16.49,0-1.98,3.5.08,7.8-.91,11.96-.36,1.52-2.82,1.73-4.32,1.38l.04-30.23c1.57-.48,2.83-.48,4.31-.04l.15,12.44h17.1s.35-12.03.35-12.03c.03-1.07,3.5-1.27,4.24.06Z"/>
      <path class="cls-6" d="M535.69,222.89c-5.45-.37-10.96-.37-16.55,0-.66,2.5-3.32,9.71-7.65,6.85l13.44-29.43c.88-1,4.03-.89,5.3-.31l13.63,29.88c-1.29.93-4.33.92-5.36-.83-1.15-1.97-1.44-4.11-2.82-6.17ZM522.14,216.9c-.36.19-.7.18-.73.45-.08.72-.26,1.87.63,1.82,4.2-.2,8.02.26,11.88-.2,1.05-.12-.37-1.06-.53-1.34-1.62-2.87-3.81-8.96-5.71-11.86-2.5,3.35-3.77,7.32-5.55,11.13Z"/>
      <path class="cls-74" d="M367.07,222.89c-5.24-.55-10.49-.56-15.75-.02-2.03,1.82-2.33,4.85-4.1,7.14-.69.9-3.4.61-4.04-.36l13.07-29.02c.55-1.22,4.31-1.53,5.23-.54,2.71,4.6,4.64,9.81,6.83,14.8,2.07,4.72,4.99,8.89,6.15,14.07.32,1.45-3.11,2.14-3.77.88l-3.63-6.95ZM353.5,217.65c-.68.11-.88.6-.59,1.5h12.11c.81,0,.92-1.5-.19-1.52l-5.75-12.12-5.59,12.14Z"/>
      <path class="cls-71" d="M607.54,216.16c-4.99.25-9.98.5-14.99.75.02,2.85-.18,5.7.07,8.97l17.68.09c.51.91.46,3.28-.54,3.58-7.12.72-14.75.63-21.6-.02l-.04-29.3c7.2-1.1,13.8-.38,20.98-.41,1.05,0,1.06,3.49-.03,3.5l-16.48.16-.02,8.88,14.68.22c.45,1.39.27,2.53.28,3.59Z"/>
      <path class="cls-24" d="M33.71,115.93c-2.44,12.04,1.95,15.7-1.6,18.35-.28-2.31-3.15-3.57-3.74-5.45-2.11-6.67-.37-13.81,1.38-20.36l-2.79-6c5.27-8.52,15.52-13.63,26.49-13.32-11.98,4.68-17.37,15.04-19.75,26.79Z"/>
      <path class="cls-80" d="M319.11,204.17c-.6,2.64-.69,5.62.02,8.25l14.7.12c.44,1.44.27,2.55.28,3.62-4.95.24-9.94.49-14.98.75-.64,2.88-.68,6.1,0,8.98l16.67.09c.85,1.33.56,2.76.56,3.65-6.99.59-14.54.66-21.72,0-.53-.15-.66-.27-.46-.74.12-.28.46-.54.46-.76-.66-9.17-.66-18.49,0-27.67,6.53-1.82,13.62-.14,20.66-.82.45,1.56.46,2.59.17,3.68-5.63.85-11.25-.99-16.35.86Z"/>
      <path class="cls-34" d="M83.15,118.18c-.57,2.6-.33,6.71.28,9.55,3.98,18.35,18.37,28.3,19.01,31.33.16.76-2.85,4.51-3.62,4.62-11.09-8.74-20.92-23.75-22.52-38.02,1.76.91,3.73.97,6.11.62-2.05-3.39.31-5.76.11-10.4,1,.61.57,1.55.63,2.31Z"/>
      <path class="cls-64" d="M203.63,96.63c.33,7.3-2.92,14.16-5.11,20.8-1.08.49-2.57.55-4.48.18l-6.7,8.96-2.43.49c-2.23,2.19-5.47,5.19-6.36.84,6.7-7.94,14.26-23.36,14.16-32.9,1.53.98,1.58,5.53,3.94,5.49,2.61-.04.96-3.38,6.99-3.85Z"/>
      <path class="cls-1" d="M185.09,136.63c-4.99,4.36-9.63,8.81-16.6,11.54s-14.86,5.53-22.51,5.9c3.36-2.12,10.47-1.38,15.16-4.61-2.42-4.32-15.29.58-13.59-5.85,5.76-.96,11.05-3.24,16.52-5.19,6.03-1.11,10-2.71,14.93-6.68l1.68.69c3.33-3.31,8.39.77,4.42,4.2Z"/>
      <path class="cls-14" d="M503.3,222.71c1.4.76,2.24,2.02,3.09,2.84-3.36,3.94-7.83,4.91-12.79,4.97-5.77.07-10.89-3.53-13.53-8.03-3.09-5.27-2.67-11.57,1.15-16.95,5.21-7.35,17.71-8.49,24.1-1.9.8,1.09-1.69,3.03-2.34,3.25-3.12-3.01-7.16-4.2-11.6-3.26-3.42.72-6.72,3.93-8.29,8.19-1.75,4.78,1.22,10.78,5.23,13,5.09,2.82,10.08,2.18,14.99-2.12Z"/>
      <path class="cls-60" d="M94.39,169.58c-.07.66-.69,1.25-.98,1.81.36-1.23-.62-.61-.98.39-7.1,1.44-24.4,1.09-31.62.34-4.1-.42-7.34-2.58-8.47-6.81h35.29c.68,0,.76-.49.76-.76v-1.57c1.36,1.29,2.14,3.23,4.06,4.32,1.04.59,1.97,1.22,1.93,2.28Z"/>
      <path class="cls-52" d="M137.08,186.24c.16-.67.43-.69.8-.08,4.13-3.66,7.92-4.76,11.36-3.31l-.16,1.73c-5.23,5.25-11.6,9.89-18.09,14.21-7.29-4.6-13.83-9.5-20.1-14.79-.12-3.38,2.76-5.61,4.53-8.25,1.32-.03,1.72.79,1.2,2.46l14.21,11.22c1.52-1.8,3.79-2.82,6.26-3.18Z"/>
      <path class="cls-88" d="M95.07,81.49c-3.23.96-5.82,1.79-8.97,3.15l.31-30.55c.03-3.27.8-6.34,1.39-9.21,1.73.46-.76,5.87.15,7.66s6.59.31,6.57,4.46l-.1,21.56c0,1.23.03,2.23.65,2.94Z"/>
      <path class="cls-32" d="M240.26,149.48c.27,7.89-1.59,14.47-7.3,20.15-2.75.79-7.98-1.72-8.68-4.56,1.9-3.62,3.69-15.09,3.45-14.73-.02-3.6,1.81-7.88,5.77-6.79,1.4.66,2.13,2.34,2.19,5.03,1.26,2.71,2.2,3.04,2.81.99l1.76-.09Z"/>
      <path class="cls-54" d="M166.96,188.63l1.43,3.73c-.87,8.86-.34,17.21,1.6,25.05,2.81,2.22,4.07,4.79,3.79,7.72-.56,1.16-.78,2.54-1.01,3.79-1.54.79-1.85.02-2.19-1.43-5.01,1.16-5.44-2.91-4.37-6.84.17-6.33.63-12.84-1.56-19.11-.37-1.06-1.64-1.76-1.99-2.34s-2.85-.04-2.84.84c.06,5.3-.72,10.49-.94,15.38l-.03-31.23c2.21-2.18,5.09-3.36,6.86-5.4,1.47-2.1,1.24,9.59,1.23,9.85Z"/>
      <path class="cls-90" d="M71.16,97.22l-4.3,8.43c-12.66-.9-23.16.65-28.47,12.76-.7-5.87,1.89-10.55,4.39-15.03l1.68-.56c6.72-5.97,15.16-8.31,25.31-7.04l1.38,1.45Z"/>
      <path class="cls-38" d="M240.26,149.48l-1.63,2.95c-.83,1.5-3.67-1.44-4.35-3.33s-.65-3.83-.79-5.55l-1.64-1.47c-.87-9.85-5.4-18.94-12.13-26.09-1.65-1.04-3.2-2.33-4.44-4.38,10.06,2.52,16.29,10.41,20.97,18.83,3.68,6.63,3.77,12.29,4.01,19.03Z"/>
      <path class="cls-39" d="M175.21,203.44l-.02,14.93c0,2.5-.5,4.87-1.41,6.75-4.17-8.58-6.23-3.54-6.74-15.69-.3-7.23-.23-14.01-.08-20.81,1.91.51,3.24,2.04,4.17,4.14l2.9,6.5c.6,1.35.35,3.21,1.18,4.17Z"/>
      <path class="cls-49" d="M176.79,100.22c-3.33,8.83-8.87,16.5-16.62,23.01-3.54,3.72-7.27,7.26-11.17,10.61-1.88.62-5.27,5.14-8.16,6-2.97,3.05-8.65,5.64-6.75-.64l9.67-7.65,10.18-8.45c7.78-6.46,20.13-20.13,24.49-29.63,1.1,2.76-1.15,4.79-1.65,6.75Z"/>
      <path class="cls-16" d="M422.5,203.44c-.27,6.45-.52,12.93-.75,19.45-.49,2.08,1.03,4.39-.07,6.73-.62,1.31-2.85.83-4.35.56l-.03-26.64-10.43-.12c-.15-1.29-.13-2.28.25-3.65l24.44.03c.91,0,1.02,2.97.39,3.48-2.7.4-6.14.05-9.45.16Z"/>
      <path class="cls-21" d="M71.16,97.22c-10.66.43-18.12-1.28-27.11,7.46-.78-.11-1.06-.8-1.27-1.31,9.4-14.1,20.28-15.35,36.53-14.11-5.76,4.18-4.69,5.29-8.15,7.96Z"/>
      <path class="cls-25" d="M334.11,71.8l-58.45.87v105.33s23.23.02,23.23.02l.02-29.13c0-.53.45-.88.74-.79.63,9.64.65,20.7,0,30.67l-24.73-.02v-107.69s53.86,0,53.86,0c1.98.51,3.66.96,5.33.76Z"/>
      <path class="cls-81" d="M152.71,95.46c-8.65,8.08-10.32,8.51-15.73,19.72-1.15.05-1.88-.44-2.18-1.47-.38,3.54-2.01,5.48-4.91,5.83-1.53,1.67-3.1,2.73-4.73,3.18-.12-2.75-.07-5.62.77-8.29l-.25-3.96c1.14-.97,1.99-2.41,2.55-4.32.42-.27.35-1.13.71-1.44.65-.48,1.29-.56,1.89-.11.08,2.8.96,4.08,2.64,3.85,2.06-5.19,5.31-9.17,9.74-11.95-1.63-2.32,3.16-4.83,5.18-3.72,2.28-1.66,5.6-.17,4.31,2.68Z"/>
      <path class="cls-17" d="M404.53,229.62c-6.88.6-14.02.69-20.87-.1l-.04-29.5c1.59-.49,2.79-.5,4.37-.01l.08,25.85,16.18.17c.43,1.42.3,2.53.28,3.59Z"/>
      <path class="cls-4" d="M136.99,115.18l-1.48,8.23-.66,7.48c-2.16,3.05-5.76,4.88-9.19,7.44-1.18-2.82-.05-4.88-.69-7.27-.8-2.96-1.15-5.91.22-8.34,1.49-2.63,3.13-5.04,6.72-5.08,1.35-2.68,1.14-5.4,3.37-7.37,1.23,1.83,1.42,3.66,1.73,4.91Z"/>
      <path class="cls-23" d="M140.84,139.84c-4.63,4.97-10.22,8.93-15.35,13.77-1.38,1.3-2.32,3.1-4.13,3.39l-1.73,1.24c-2.95,3.64-7.81,9.56-10.72,3.2,5.61-7.29,12.71-13.39,20.4-18.85l4.79-3.4c1.19.27.49,2.13,1.71,2.85,2.21.12,3.33-1.7,5.04-2.21Z"/>
      <path class="cls-61" d="M164.87,46.37c2.99,9.57,1.14,10.8,2.69,19.45-2.55,1.75-4.98,3.48-8.35,5.38-1.28-11.6,1.65-15.22-3.39-26.37,1.52,2.02,3.94,4.45,6.81,4.44,1.46-.12,1.11-2.5,2.24-2.9Z"/>
      <path class="cls-42" d="M178.69,79.78c-1.79.83-3.21,2.64-5.11,3.81-6.94,4.27-13.87,8.21-20.86,11.87-.85-1.62-2.64-2.2-4.31-2.68-.37-1.84.79-3.55,3.47-5.13,2.88-1.93,5.97-3.22,9.27-3.85,5.25-2.37,14.13-9.99,17.54-4.02Z"/>
      <path class="cls-85" d="M156.51,79.44c-.3.59-1.55,1.61-1.06,2.46,1.23,2.17,3.77,1.94,5.69,1.9-1.94.87-3.67,2.96-6,3.78-3.02,1.06-4.65,3.53-6.74,5.19-1.6,1.27-3.76,1.95-5.18,3.72-3.82,4.01-6.96,4.58-9.43,1.69l1.01-1.52c1.98-5.7,16.01-14.68,21.72-17.23Z"/>
      <path class="cls-78" d="M121.36,157.01c-2.83,2.76-5.09,6.23-7.62,9.04-3.67,4.08-8.14,8.15-10.32,13.36-1.71,4.07-7.5,1.79-6.66-1.95,3.5-5.6,6.75-11.9,12.14-16.01,1.08-.05,2.01.87,3.19,1.18,4.18,1.12,5.59-5.03,9.26-5.63Z"/>
      <path class="cls-79" d="M232.96,169.63c-4.3,4.27-8.06,8.6-15.01,10.08-3.35.71-6.95,2.43-10.6.74,8.23-2.6,13.28-8.42,16.93-15.38,2.94,1.46,6.02,2.74,8.68,4.56Z"/>
      <path class="cls-40" d="M233.5,143.55c-8.47,6.95-3.07,2.78-5.77,6.79-1.1-11.95-.99-24.28-8.01-34.34,8.93,5.61,12.93,16.97,13.78,27.56Z"/>
      <path class="cls-65" d="M198.52,117.43c-2.56,7.77-7.32,13.86-13.43,19.21.79-1.15.6-2.5-.15-3.14-1.39-1.19-2.86-1.29-4.27-1.07-.74-1.81.67-3.61,4.23-5.38,2.87-3.08,5.11-6.67,7.86-10.24,1.37-1.78,4.5-.54,5.76.61Z"/>
      <path class="cls-48" d="M131.86,182.59c2.07.89,3.8,2.11,5.21,3.65-1.83,1.72-3.82,3.46-6.55,4.5-5.15-3.87-10.08-7.36-14.9-11.46-.95-.81-.16-2.8-.23-3.54.61-.91,1.61-1.95,2.12-2.83l12.24,9.47c.81.63,1.45.89,2.1.2Z"/>
      <path class="cls-33" d="M103.43,179.41l-6.01,14.38c-.64,1.52-2.06,2.01-3.47,2.22-1.11.17-2.03-1.34-3.42-1.3-.87.02-.8,2.57-1.86,2.76.9-7.28,4.31-13.93,8.11-20.01,1.89,2.08,4.17,3.88,6.66,1.95Z"/>
      <path class="cls-8" d="M163.34,172.67c-1.69,1.51-2.98,3.23-5.05,4.96l-5.67,4.74c-1.14.95-2.07,2.41-3.55,2.21-4.31-3.53-7.25,1.18-11.19,1.58-.33-.48-.77-1.24-.48-1.56,3.28-3.71,8.78-7.69,13.31-9.57,2.04-1.77,5.08-3.13,7.16-5.76,1.97-.09,4.06,2.29,5.48,3.4Z"/>
      <path class="cls-50" d="M150.7,175.03l-12.82,11.13-.8.08c-1.15.42-2.79-.35-4.41-1.16-.79-.39-.27-1.33-.8-2.49l10.47-8.24c2.3,2.11,5.57,1.71,8.37.67Z"/>
      <path class="cls-10" d="M176.79,100.22c-1.92,7.68-6.23,14.59-10.6,21.55-.82,1.31-1.68,2.4-2.88,2.91.44-.83,1.03-1.87.84-3.22-6.72,3.41-10.66,10.91-15.15,12.38l12.86-13.36c5.78-6,10.1-12.86,14.33-20.06-.12-.99.56-1.14.6-.2Z"/>
      <path class="cls-66" d="M143.22,96.5c-2.64,3.27-5.52,6.59-7.3,10.73-.69,1.59-1.22,2.81-2.93,2.77-4.44-.09-2.5-5.54-4.03-5.29,1.31-1.14,1.88-2.79,2.17-4.36,1.26-1.11,2.19-2.78,3.67-3.68.14.93.87,1.63,1.54,1.82,3.19.93,4.33-2.08,6.88-2Z"/>
      <path class="cls-13" d="M172.78,228.92c-.62,3.44-2.77,6.26-4.97,8.93-.24-.49-.83-.53-1.4-.81.28-.99,1.34-2.62.43-3.24-1.06-.72-2.57-.42-3.11-1.21-.77-1.14-.72-2.72-.02-4.01,1.46-2.71,1.12-5.65,2.51-7.93-.05,1.81.36,5,2.27,5.56,1.2.35,2.66-.99,3.5.35.35.56.06,1.71.78,2.36Z"/>
      <path class="cls-20" d="M184.9,127.05c-1.48,1.59-2.9,3.72-4.23,5.38l-8.62,5.64c-2.27,1.49-5.68-.48-7.99.35,4.82-3.36,10.6-5.93,14.48-10.53,2.14,1.42,4.45.7,6.36-.84Z"/>
      <path class="cls-3" d="M299.65,178.76v-30.67h.75s.01,29.91.01,29.91c0,.69-.5.75-.76.75Z"/>
      <path class="cls-83" d="M467.45,229.62v-29.17c1.24,9.49,1.27,19.69,0,29.17Z"/>
      <path class="cls-70" d="M301.15,229.62v-28.42c1.2,9.1,1.29,19.09,0,28.42Z"/>
      <path class="cls-73" d="M314.63,228.12c-1.17-.73-1.19-26.8,0-27.67v27.67Z"/>
      <path class="cls-36" d="M336.36,229.62c0,.23-.09.95-.76.88-7.24-.8-14.38.97-20.97-.88h21.72Z"/>
      <path class="cls-26" d="M609.76,229.55c-6.76,2.05-14.18.06-21.48.96-.21-.41-.12-.87-.12-.99l21.6.02Z"/>
      <path class="cls-9" d="M404.53,229.62c2.71,1.16-25.22,1.15-20.87-.1l20.87.1Z"/>
      <path class="cls-86" d="M421.75,222.89v-18.71c-.01-.67.49-.73.75-.74l-.02,18.66c0,.52-.44.87-.73.79Z"/>
      <path class="cls-47" d="M128.24,106.16c-.28,2.87-1.44,5.57-2.3,8.28-.9-4.88-5.46-7.46-7.58-10.47,5.47,2.73,2.73,3.22,7.18,6.08,1.3-1.42,1.47-3.08,2.7-3.89Z"/>
      <path class="cls-31" d="M296.67,216.9l-16.52-.02c-.42-1.07,16.41-1.22,16.52.02Z"/>
      <path class="cls-15" d="M462.97,216.9h-16.49c-.61-1.11,16.4-1.23,16.49,0Z"/>
      <path class="cls-62" d="M535.69,222.89h-16.55l15.03-.81c.85-.01,1.26.43,1.51.81Z"/>
      <path class="cls-87" d="M367.07,222.89l-15.75-.02c2.25-.64,15.01-1.41,15.75.02Z"/>
      <path class="cls-7" d="M334.11,216.16c0,.26-.06.76-.74.76h-14.24c4.69-1.81,10-.23,14.98-.76Z"/>
      <path class="cls-53" d="M607.54,216.16c0,.26-.06.76-.74.76h-14.25c0-.27.1-.77.75-.77h14.24Z"/>
      <path class="cls-45" d="M509.4,129.39c-1.11,1.95-1.11-10.92,0-8.98v8.98Z"/>
      <path class="cls-22" d="M319.13,225.88c-1.41,0-.92-10.01,0-8.98v8.98Z"/>
      <path class="cls-11" d="M319.13,212.42c-1.44-.01-.87-9.16-.02-8.25l.02,8.25Z"/>
      <path class="cls-18" d="M134.84,130.89c-.29-2.66.23-5.05.66-7.48-.14,2.57.86,5.32-.66,7.48Z"/>
      <path class="cls-46" d="M444.23,158.65c-3.55.67-7.36,1.48-10.49,0h10.49Z"/>
      <path class="cls-43" d="M443.48,91.16c-2.74-.3-5.64.52-8.99,0,2.63-1.13,6.36-1.13,8.99,0Z"/>
      <path class="cls-57" d="M300.4,127.15c-.11.11-.93-.32-.89-.82.84-11.7-.96-23.25.89-34.34v35.15Z"/>
      <path class="cls-63" d="M325.87,91.91l-25.47.09c.3-1.23,24.94-1.08,25.47-.09Z"/>
      <path class="cls-29" d="M343.19,113.69c-.14-2.49-.16-4.99.01-7.48.62,2.21,1.51,4.93-.01,7.48Z"/>
      <path class="cls-28" d="M567.08,204.14l-9.73.03v12c1.97.08,3.57-.38,5.24.74l-6-.06v-13.39s9.71.02,9.71.02c.51,0,.88.33.78.66Z"/>
      <path class="cls-30" d="M533.39,217.64c.16.28,1.57,1.21.53,1.34-3.86.46-7.68,0-11.88.2-.89.04-.71-1.1-.63-1.82.03-.27.36-.26.73-.45,0,.31-.14.82.03,1.09.22.34.77.46,1.41.46l8.34-.02c.8,0,1.45-.23,1.47-.79Z"/>
      <path class="cls-27" d="M364.84,217.63c1.11.02,1,1.51.19,1.51h-12.11c-.29-.89-.1-1.38.59-1.49.19.43.73.78,1.53.78h8.34c.8,0,1.45-.25,1.47-.8Z"/>
    </g>
  </g>
</svg>
